<?xml version="1.0" encoding="iso-8859-1"?>
<!-- Generator: Adobe Illustrator 16.0.0, SVG Export Plug-In . SVG Version: 6.00 Build 0)  -->
<!DOCTYPE svg PUBLIC "-//W3C//DTD SVG 1.1//EN" "http://www.w3.org/Graphics/SVG/1.1/DTD/svg11.dtd">
<svg version="1.1" id="Capa_1" xmlns="http://www.w3.org/2000/svg" xmlns:xlink="http://www.w3.org/1999/xlink" x="0px" y="0px"
	 width="932.9px" height="932.9px" viewBox="0 0 932.9 932.9" style="enable-background:new 0 0 932.9 932.9;" xml:space="preserve"
	>
<g>
	<path d="M699.65,710.4v64.799c4.399-2,8.3-5,11.7-8.898c6.1-6.9,9.1-15.4,9.1-25.9c0-8.701-1.9-15.301-5.9-20.201
		C712.45,717.699,708.25,714.199,699.65,710.4z"/>
	<g>
		<path d="M415.55,691.301c0-36.102,7.101-71.102,21-104.102c13.5-31.799,32.7-60.398,57.301-85c22-22,47.3-39.799,75.199-52.899
			c-6.699-24.301-29-42.101-55.399-42.101h-63.9c-11.3,0-21.8,5.5-28.399,14.7L327.05,555.199l-23-48.299l36.601-77
			c5-10.5-2.7-22.7-14.3-22.7h-73.3c-11.7,0-19.4,12.2-14.3,22.7l36.601,77l-22.5,47.5L161.65,422.2c-6.5-9.399-17.2-15-28.6-15
			h-67.1c-31.8,0-57.5,25.7-57.5,57.5v382.101h457.1c-11.5-16-21.1-33.201-28.899-51.5C422.65,762.4,415.55,727.301,415.55,691.301z
			"/>
		<path d="M288.75,0c-102.2,0-185.3,83.1-185.3,185.3c0,102.2,83.1,185.3,185.3,185.3c102.2,0,185.3-83.1,185.3-185.3
			C474.05,83.1,390.95,0,288.75,0z"/>
		<path d="M681.95,448.2c-40.3,0-78.3,9.8-111.7,27.201c-77.6,40.4-130.6,121.6-130.6,215.1c0,59.199,21.3,113.5,56.6,155.6
			c44.5,53,111.2,86.801,185.8,86.801c133.801,0,242.4-108.5,242.4-242.4S815.75,448.2,681.95,448.2z M750.75,796.801
			c-13.1,13.699-29.6,22-49.1,24.799v21.6c0,5.5-4.5,10-10,10h-17.9c-5.5,0-10-4.5-10-10V821.4c-12.399-2.201-23-5.5-31.6-9.9
			c-11-5.699-20.601-14.801-28.5-27.199c-7.8-12.301-12.3-27.301-13.601-44.602c-0.399-5.1,3.101-9.6,8.101-10.5l30.5-5.699
			c2.7-0.5,5.399,0.1,7.7,1.699c2.199,1.602,3.699,4,4.1,6.701c2.1,14.5,5.6,25,10.5,31.199c3.9,4.9,8.1,8.6,12.8,11v-75.299
			c-10.899-2.9-22-7.5-33.1-13.701c-11.3-6.299-20.101-15.1-26.2-26.299c-6-11-9.1-23.5-9.1-37.301c0-24.5,8.899-44.6,26.3-59.9
			c10.1-8.9,24.2-14.799,42.1-17.799V538.1c0-5.5,4.5-10,10-10h17.9c5.5,0,10,4.5,10,10v5.701c15.5,2.699,28.399,8.199,38.399,16.6
			c15.101,12.6,24.4,29.9,27.4,51.6c0.8,5.4-3,10.5-8.4,11.301L727.75,628c-5.5,0.801-10.6-2.9-11.399-8.4
			c-1.5-9.9-4.4-17.4-8.801-22.199c-1.699-1.9-3.6-3.5-5.899-4.9v65.301c11.7,3.1,19.7,5.5,24.3,7.5
			c10.6,4.699,19.4,10.5,26.2,17.299c6.899,6.9,12.3,15.201,16,24.701c3.6,9.299,5.5,19.5,5.5,30.299
			C773.65,760.9,765.95,780.9,750.75,796.801z"/>
	</g>
	<path d="M651.45,599.5c-5.2,5.801-7.7,12.5-7.7,20.5s2.101,14.4,6.4,19.5c2.6,3.199,6.5,6,11.7,8.6V591.9
		C657.75,593.699,654.25,596.199,651.45,599.5z"/>
</g>
<g>
</g>
<g>
</g>
<g>
</g>
<g>
</g>
<g>
</g>
<g>
</g>
<g>
</g>
<g>
</g>
<g>
</g>
<g>
</g>
<g>
</g>
<g>
</g>
<g>
</g>
<g>
</g>
<g>
</g>
</svg>
